<svg xmlns="http://www.w3.org/2000/svg" width="300" height="300" viewBox="0 0 300 300">
  <rect width="300" height="300" fill="#ffffff"/>
  <rect x="20" y="20" width="260" height="260" fill="#f0f0f0" rx="10"/>
  
  <!-- QR Pattern -->
  <rect x="40" y="40" width="30" height="30" fill="#1e40af"/>
  <rect x="75" y="40" width="15" height="15" fill="#1e40af"/>
  <rect x="95" y="40" width="15" height="15" fill="#1e40af"/>
  <rect x="130" y="40" width="15" height="15" fill="#1e40af"/>
  <rect x="155" y="40" width="15" height="15" fill="#1e40af"/>
  <rect x="190" y="40" width="15" height="15" fill="#1e40af"/>
  <rect x="230" y="40" width="30" height="30" fill="#1e40af"/>
  
  <rect x="40" y="75" width="15" height="15" fill="#1e40af"/>
  <rect x="95" y="75" width="15" height="15" fill="#1e40af"/>
  <rect x="130" y="75" width="30" height="15" fill="#1e40af"/>
  <rect x="190" y="75" width="30" height="15" fill="#1e40af"/>
  <rect x="245" y="75" width="15" height="15" fill="#1e40af"/>
  
  <rect x="40" y="95" width="30" height="30" fill="#1e40af"/>
  <rect x="110" y="95" width="15" height="15" fill="#1e40af"/>
  <rect x="145" y="95" width="15" height="15" fill="#1e40af"/>
  <rect x="175" y="95" width="15" height="15" fill="#1e40af"/>
  <rect x="230" y="95" width="30" height="30" fill="#1e40af"/>
  
  <!-- Center pattern -->
  <rect x="110" y="130" width="80" height="40" fill="#2563eb" rx="5"/>
  <text x="150" y="157" font-family="Arial" font-size="14" fill="white" text-anchor="middle">QRIS</text>
  
  <rect x="40" y="175" width="30" height="15" fill="#1e40af"/>
  <rect x="95" y="175" width="15" height="30" fill="#1e40af"/>
  <rect x="130" y="175" width="15" height="15" fill="#1e40af"/>
  <rect x="175" y="175" width="30" height="15" fill="#1e40af"/>
  <rect x="230" y="175" width="30" height="30" fill="#1e40af"/>
  
  <rect x="40" y="210" width="30" height="30" fill="#1e40af"/>
  <rect x="110" y="210" width="15" height="15" fill="#1e40af"/>
  <rect x="145" y="210" width="30" height="30" fill="#1e40af"/>
  <rect x="190" y="210" width="15" height="15" fill="#1e40af"/>
  <rect x="245" y="210" width="15" height="15" fill="#1e40af"/>
  
  <rect x="40" y="245" width="15" height="15" fill="#1e40af"/>
  <rect x="75" y="245" width="30" height="15" fill="#1e40af"/>
  <rect x="130" y="245" width="15" height="15" fill="#1e40af"/>
  <rect x="165" y="245" width="30" height="15" fill="#1e40af"/>
  <rect x="230" y="245" width="30" height="15" fill="#1e40af"/>
  
  <!-- Label -->
  <text x="150" y="290" font-family="Arial" font-size="10" fill="#666" text-anchor="middle">Scan untuk membayar</text>
</svg>
